<?xml version="1.0" encoding="UTF-8"?>
<svg fill="none" viewBox="0 0 47 40" xmlns="http://www.w3.org/2000/svg">
<path d="m23.5 6.5c-6 0-9.75 3-11.25 9 2.25-3 4.875-4.125 7.875-3.375 1.7117 0.4279 2.9351 1.6697 4.2892 3.0442 2.206 2.2392 4.7592 4.8308 10.336 4.8308 6 0 9.75-3 11.25-9-2.25 3-4.875 4.125-7.875 3.375-1.7117-0.4279-2.9351-1.6697-4.2893-3.0442-2.206-2.2392-4.7591-4.8308-10.336-4.8308zm-11.25 13.5c-6 0-9.75 3-11.25 9 2.25-3 4.875-4.125 7.875-3.375 1.7117 0.4279 2.9351 1.6697 4.2892 3.0443 2.206 2.2391 4.7592 4.8307 10.336 4.8307 6 0 9.75-3 11.25-9-2.25 3-4.875 4.125-7.875 3.375-1.7117-0.4279-2.9351-1.6697-4.2892-3.0443-2.206-2.2391-4.7592-4.8307-10.336-4.8307z" fill="#6366f1"/>
</svg>
